<svg id="Layer_1" data-name="Layer 1" xmlns="http://www.w3.org/2000/svg" viewBox="0 0 160 160"><defs><style>.cls-1{fill:#fff;}.cls-2{fill:none;stroke:#fff;stroke-miterlimit:10;stroke-width:4px;}</style></defs><circle class="cls-1" cx="74.25" cy="46.25" r="8.75"/><path class="cls-1" d="M55,111l-1.75-11L62,111l-9.9,21H62l10.5-24.5-13.66-18,2.42-3.88,38.05,27.28a12.32,12.32,0,0,0-4.65,5.25A7.35,7.35,0,0,0,93.5,118a7,7,0,0,0-7,7c0,.12,0,.22,0,.34a5.08,5.08,0,0,0-1.79-.34,5.26,5.26,0,0,0-5.25,5.25,5.32,5.32,0,0,0,.32,1.75h51.86a5.32,5.32,0,0,0,.32-1.75,5.26,5.26,0,0,0-5.25-5.25,5,5,0,0,0-1.78.34c0-.12,0-.22,0-.34a7,7,0,0,0-7-7,7.35,7.35,0,0,0-1.16.12A12.23,12.23,0,0,0,105.75,111a12,12,0,0,0-2.62.3L85.27,98.49,76,83.38V62L58.5,51.5h-21V64.25L34,61.76l-2,2.85,13.63,9.76L41,83l3.5,24.5L32.05,132h9Zm14-37.8v13.3l-5.88-3.88ZM44.5,69.26V58.49h9.63L47.29,71.26Z"/><circle class="cls-2" cx="79.75" cy="80.25" r="58.75"/></svg>