<svg xmlns="http://www.w3.org/2000/svg" viewBox="0 0 49.17 49.17"><defs><style>.cls-1{fill:#fff;fill-rule:evenodd;}</style></defs><g id="Layer_2" data-name="Layer 2"><g id="Layer_1-2" data-name="Layer 1"><path class="cls-1" d="M24.59,0c-6.68,0-7.52,0-10.14.15a18,18,0,0,0-6,1.14A11.94,11.94,0,0,0,4.13,4.13,11.94,11.94,0,0,0,1.29,8.48a18,18,0,0,0-1.14,6C0,17.07,0,17.91,0,24.59S0,32.1.15,34.72a18,18,0,0,0,1.14,6A11.94,11.94,0,0,0,4.13,45a11.94,11.94,0,0,0,4.35,2.84,18,18,0,0,0,6,1.14c2.62.12,3.46.15,10.14.15s7.51,0,10.13-.15a18,18,0,0,0,6-1.14,12.64,12.64,0,0,0,7.19-7.19,18,18,0,0,0,1.14-6c.12-2.62.15-3.46.15-10.13s0-7.52-.15-10.14a18,18,0,0,0-1.14-6A11.94,11.94,0,0,0,45,4.13a11.94,11.94,0,0,0-4.35-2.84,18,18,0,0,0-6-1.14C32.1,0,31.26,0,24.59,0Zm0,4.43c6.56,0,7.34,0,9.93.14a13.55,13.55,0,0,1,4.57.85,7.71,7.71,0,0,1,2.82,1.84,7.54,7.54,0,0,1,1.84,2.83,13.42,13.42,0,0,1,.85,4.56c.12,2.59.14,3.37.14,9.94s0,7.34-.14,9.93a13.55,13.55,0,0,1-.85,4.57,8.18,8.18,0,0,1-4.66,4.66,13.55,13.55,0,0,1-4.57.85c-2.59.12-3.37.14-9.93.14s-7.35,0-9.94-.14a13.42,13.42,0,0,1-4.56-.85,7.54,7.54,0,0,1-2.83-1.84,7.71,7.71,0,0,1-1.84-2.82,13.55,13.55,0,0,1-.85-4.57c-.12-2.59-.14-3.37-.14-9.93s0-7.35.14-9.94a13.42,13.42,0,0,1,.85-4.56A7.66,7.66,0,0,1,7.26,7.26a7.66,7.66,0,0,1,2.83-1.84,13.42,13.42,0,0,1,4.56-.85C17.24,4.45,18,4.43,24.59,4.43ZM12,24.59A12.63,12.63,0,1,1,24.59,37.21,12.62,12.62,0,0,1,12,24.59Zm12.63,8.19a8.2,8.2,0,1,1,8.19-8.19A8.2,8.2,0,0,1,24.59,32.78ZM37.71,14.41a2.95,2.95,0,1,0-3-2.95A2.95,2.95,0,0,0,37.71,14.41Z"/></g></g></svg>