<svg xmlns="http://www.w3.org/2000/svg" viewBox="0 0 52.85 49.16"><defs><style>.cls-1{fill:#fff;fill-rule:evenodd;}</style></defs><g id="Layer_2" data-name="Layer 2"><g id="Layer_1-2" data-name="Layer 1"><path class="cls-1" d="M1.33,49.16V15.77h10.3V49.16ZM39.78,15.44c7.32,0,13.07,4.81,13.07,15.15V49.16H41.17V31.88c0-4.52-1.83-7.61-5.84-7.61a5.9,5.9,0,0,0-5.58,4.09,7.73,7.73,0,0,0-.26,2.73V49.16H17.92s.15-30.61,0-33.4H29.49V21C30.18,18.71,33.88,15.44,39.78,15.44ZM6.29,0c3.8,0,6.14,2.49,6.21,5.79s-2.41,5.8-6.28,5.8H6.15C2.42,11.59,0,9,0,5.8S2.49,0,6.29,0Z"/></g></g></svg>