<svg xmlns="http://www.w3.org/2000/svg" viewBox="0 0 288 55.34"><defs><style>.cls-1{fill:#fff;}</style></defs><g id="Layer_2" data-name="Layer 2"><g id="Layer_1-2" data-name="Layer 1"><path class="cls-1" d="M15.46,19c-.27,1.14-.41,2.57-1.54,3.21a7.77,7.77,0,0,1-3.36.32,7.84,7.84,0,0,1-3.7-.83,2.33,2.33,0,0,1-.89-2C6,17,6,14.41,6,11.8c2.07.09,4.18-.21,6.22.21,1,.3.9,1.53,1.05,2.34.39,0,.8,0,1.19,0,0-2.09,0-4.17,0-6.26h-1.2c-.13.83,0,2-1,2.35-2,.5-4.17.21-6.24.28V1.25c2.41.08,4.85-.21,7.23.27,1.3.28,1.42,1.84,1.65,2.9l1.22,0c-.13-1.49-.31-3-.47-4.46H0V.93a4.23,4.23,0,0,1,2.3.59,4.93,4.93,0,0,1,.54,2.57c0,5.1,0,10.19,0,15.29A5.57,5.57,0,0,1,2.36,22c-.56.72-1.55.63-2.36.71v1c5.39-.08,10.77.19,16.15.41.28-1.73.35-3.48.51-5.21Z"/><path class="cls-1" d="M225.25,2A114.5,114.5,0,0,0,245,2c.17,1.69.4,3.36.57,5h-1.27c-.24-1.2-.64-2.69-2-3.13-1.81-.59-3.75-.35-5.61-.4,0,5.58,0,11.15,0,16.73a2.9,2.9,0,0,0,.7,2.18,6,6,0,0,0,2.62.47c0,.3,0,.59,0,.89h-9.86c0-.3,0-.59,0-.89a5.38,5.38,0,0,0,2.61-.51,2.77,2.77,0,0,0,.64-2.16c0-5.57,0-11.14,0-16.71-1.9.06-3.89-.22-5.71.47-1.25.47-1.6,1.9-1.81,3.08-.44,0-.88,0-1.31,0,.21-1.68.4-3.37.6-5Z"/><path class="cls-1" d="M19,2.37q2.32,0,4.65,0C28.19,7.59,32.87,12.73,37.47,18c0-4,0-7.93,0-11.89a4.68,4.68,0,0,0-.4-2.13c-.59-.72-1.62-.59-2.44-.7,0-.22,0-.65,0-.87H42v.86c-.91.11-2.31,0-2.61,1.13a19.64,19.64,0,0,0-.23,4.2c0,5.28.05,10.57,0,15.86-5-5.67-10-11.38-15.09-17,0,4.27,0,8.53,0,12.8a3.28,3.28,0,0,0,.52,2.15,4.49,4.49,0,0,0,2.32.51c0,.29,0,.58,0,.88-2.48,0-4.94,0-7.42,0,0-.31,0-.6,0-.9a3.89,3.89,0,0,0,2.12-.5,3.8,3.8,0,0,0,.57-2.43c0-4.79,0-9.59,0-14.39a4.35,4.35,0,0,0-3.18-2.34c0-.21,0-.62,0-.82Z"/><path class="cls-1" d="M42.82,2.37c2.36,0,4.72,0,7.08,0,0,.21,0,.63,0,.85-.58.11-1.32-.06-1.75.43-.23.63.17,1.24.39,1.82Q52,12.73,55.47,20c2.16-4.41,4.06-9,6.12-13.41a12.65,12.65,0,0,0,.95-2.46c-.3-.77-1.26-.73-1.92-.94,0-.27.05-.55.08-.82,1.95,0,3.9,0,5.86,0,0,.21,0,.63,0,.83-1.55-.05-2.42,1.32-3,2.57C60.8,12,58,18.13,55.19,24.33l-1.08,0c-2.66-5.54-5.26-11.11-7.9-16.67a17.89,17.89,0,0,0-2.12-3.83,2.32,2.32,0,0,0-1.28-.7c0-.2,0-.6,0-.8Z"/><path class="cls-1" d="M67.75,2.36c2.94,0,5.87,0,8.81,0,0,.21,0,.64,0,.85a4.34,4.34,0,0,0-2.25.51,3.5,3.5,0,0,0-.61,2.33V19.93a4.27,4.27,0,0,0,.52,2.38,4.55,4.55,0,0,0,2.32.56c0,.28,0,.57,0,.87-3,0-5.88,0-8.83,0,0-.22,0-.64,0-.85.78-.2,1.72,0,2.33-.62a4.08,4.08,0,0,0,.51-2.36c0-4.73,0-9.45,0-14.16-.08-.73,0-1.65-.71-2.12a5.32,5.32,0,0,0-2.13-.41c0-.22,0-.65,0-.87Z"/><path class="cls-1" d="M125.63,2.36c1.55,0,3.1,0,4.64,0,4.64,5.16,9.25,10.35,13.88,15.51,0-3.94,0-7.88,0-11.81a4,4,0,0,0-.41-2.19c-.63-.65-1.62-.53-2.45-.63,0-.22,0-.65,0-.87,2.47,0,5,0,7.42,0,0,.21,0,.63,0,.85-.85.12-2,0-2.51.81a4.69,4.69,0,0,0-.34,2V24.41c-5.11-5.63-10.08-11.39-15.17-17-.09,4.09,0,8.19,0,12.29a4.83,4.83,0,0,0,.52,2.63c.61.58,1.53.46,2.31.56,0,.3,0,.59,0,.89h-7.43c0-.3,0-.59,0-.87.81-.13,1.89,0,2.4-.78a6.07,6.07,0,0,0,.37-2.43c0-4.73,0-9.45,0-14.17-.83-1.07-1.82-2.23-3.28-2.29,0-.21,0-.63,0-.84Z"/><path class="cls-1" d="M150.75,2.36h5.59c3,5.07,5.88,10.19,8.86,15.26,2.66-5.1,5.41-10.16,8.09-15.26,1.93,0,3.86,0,5.79,0v.87c-.84.1-1.84,0-2.47.66a3.64,3.64,0,0,0-.39,1.88c0,4.81,0,9.62,0,14.44a3.92,3.92,0,0,0,.48,2.1,4.11,4.11,0,0,0,2.34.53l0,.91c-2.86,0-5.72,0-8.58,0,0-.22,0-.65-.05-.87.92-.15,2.32,0,2.64-1.13.43-1.88.16-3.82.24-5.73-.07-3.71.12-7.43-.1-11.13-3,5.58-5.93,11.23-9,16.78q-4.49-7.76-9-15.5c0,4.49,0,9,0,13.47a5.3,5.3,0,0,0,.46,2.58c.62.62,1.58.55,2.39.65,0,.22,0,.66,0,.87h-7.27c0-.3,0-.59,0-.89a4.92,4.92,0,0,0,2.15-.42,3,3,0,0,0,.66-2.23c0-4.63,0-9.26,0-13.88A3.81,3.81,0,0,0,153,3.75a4.41,4.41,0,0,0-2.29-.52V2.36Z"/><path class="cls-1" d="M181.23,2.36h15.59c.17,1.32.33,2.64.49,4h-1.23c-.23-1-.41-2.38-1.62-2.59a43,43,0,0,0-7.27-.24c0,2.84,0,5.69,0,8.54,2.1-.14,4.25.23,6.3-.29.86-.28.86-1.33.92-2.08h1.22v5.69h-1.2c-.1-.79-.1-1.95-1.08-2.18a42.6,42.6,0,0,0-6.19-.18c.05,2.53-.07,5.07.06,7.6.22,1.44,1.86,1.77,3.07,1.91a14.53,14.53,0,0,0,4.56-.07c1.28-.4,1.55-1.86,1.79-3l1.24,0c-.17,1.55-.35,3.11-.47,4.68-5.39-.22-10.79-.47-16.2-.39,0-.21,0-.65,0-.87.83-.13,1.93,0,2.46-.82a5.55,5.55,0,0,0,.39-2.43c0-4.53,0-9.06,0-13.59a4,4,0,0,0-.51-2.25,4.33,4.33,0,0,0-2.33-.56c0-.21,0-.64,0-.86Z"/><path class="cls-1" d="M200.18,2.36c1.55,0,3.11,0,4.66,0,4.59,5.23,9.26,10.37,13.88,15.57,0-4,0-7.94,0-11.91a4,4,0,0,0-.49-2.2c-.63-.61-1.59-.49-2.39-.63l.06-.84c2.45,0,4.89,0,7.33,0,0,.22,0,.65,0,.87-1.13,0-2.76.2-2.74,1.67-.2,6.5-.07,13-.12,19.5-5.07-5.64-10-11.37-15.12-17,0,4.36,0,8.72,0,13.08a2.76,2.76,0,0,0,.55,1.9,4.91,4.91,0,0,0,2.31.5l0,.88c-2.47,0-4.94,0-7.4,0v-.87a4,4,0,0,0,2.18-.56,3.29,3.29,0,0,0,.52-2.09c0-4.92,0-9.84,0-14.76-.81-1-1.77-2.18-3.2-2.26,0-.21,0-.63,0-.84Z"/><path class="cls-1" d="M271,2.37h8.87c0,.22,0,.65,0,.87a4.37,4.37,0,0,0-2.32.51,3,3,0,0,0-.53,2c0,4.81,0,9.62,0,14.43a1.76,1.76,0,0,0,1.14,1.72,15.7,15.7,0,0,0,4.48.51,5.61,5.61,0,0,0,2.81-.5,5.13,5.13,0,0,0,1.29-3H288c-.23,1.71-.37,3.43-.58,5.14-5.48-.31-11-.33-16.45-.28,0-.31,0-.6,0-.9a4.23,4.23,0,0,0,2.35-.54,3.61,3.61,0,0,0,.48-2.1V5.77a3.09,3.09,0,0,0-.54-2,4.73,4.73,0,0,0-2.31-.5V2.37Z"/><path class="cls-1" d="M119.17,4c-2.68-2.24-6.41-2.65-9.76-2.11a10.55,10.55,0,0,0-7.49,5.5,12.83,12.83,0,0,0-1.12,7.79,10.69,10.69,0,0,0,4.72,7.41,12.53,12.53,0,0,0,9,1.53,10.66,10.66,0,0,0,7.57-5.77A12.34,12.34,0,0,0,119.17,4Zm-.49,14.21a8.55,8.55,0,0,1-3.74,4.48,6.53,6.53,0,0,1-7.25-.82,10.79,10.79,0,0,1-3.32-7,14.19,14.19,0,0,1,1.4-8.31,7.53,7.53,0,0,1,4.31-3.7,6.51,6.51,0,0,1,6.13,1.34,10.6,10.6,0,0,1,3.21,6.5A15.11,15.11,0,0,1,118.68,18.25Z"/><path class="cls-1" d="M99.08,22.87a2.83,2.83,0,0,1-1.91-1c-2-2.39-3.51-5.15-5.49-7.56A7.91,7.91,0,0,0,90,13c2.19-.7,4.47-2.07,5.17-4.41.4-1.58.44-3.54-.82-4.75s-3.3-1.26-5-1.42c-3.51,0-7,0-10.53,0v.86a4.79,4.79,0,0,1,2.33.51,3.33,3.33,0,0,1,.53,2c0,4.81,0,9.63,0,14.44A3,3,0,0,1,81,22.43a5,5,0,0,1-2.17.42c0,.3,0,.59,0,.89h8.74v-.87a4.08,4.08,0,0,1-2.25-.59,3,3,0,0,1-.45-1.79c0-2.29,0-4.57,0-6.85,1-.05,1.92,0,2.89,0C90,17,92.25,20.34,94.46,23.74h4.65ZM84.89,12.69V3.27c1.93,0,4-.08,5.77.92a3.62,3.62,0,0,1,1.51,3.53,5.22,5.22,0,0,1-2.78,4.47C88,13,86.38,12.59,84.89,12.69Z"/><path class="cls-1" d="M269.82,22.87c-1.27,0-1.8-1.28-2.3-2.24-3-6.3-6-12.6-8.95-18.9h-1c-2.63,5.63-5.15,11.31-7.75,17a15.26,15.26,0,0,1-1.88,3.49,2.87,2.87,0,0,1-1.8.73c0,.28,0,.56,0,.85H252v-.91c-.65-.13-1.67-.11-1.8-.94a44.85,44.85,0,0,1,2.1-4.9c3.4,0,6.79,0,10.18,0a34.83,34.83,0,0,1,2.2,5.11c-.14.87-1.26.62-1.87.76,0,.21,0,.62,0,.82,2.35.11,4.71,0,7.06.06Zm-17.12-7q2.2-5,4.47-9.9c1.56,3.3,3.12,6.6,4.65,9.9Z"/><path class="cls-1" d="M69.15,30.65a22,22,0,0,1,9.4.75c.13,1.57.3,3.14.47,4.7l-1.2,0a5.05,5.05,0,0,0-2.75-3.94,7.07,7.07,0,0,0-7.33.68A10.83,10.83,0,0,0,64.21,39a18.27,18.27,0,0,0,.36,9.14c.87,2.56,2.64,5.09,5.35,5.89a7.17,7.17,0,0,0,6-.75,5.76,5.76,0,0,0,2-3.75h1.21c-.15,1.55-.29,3.09-.43,4.65-3.54,1.09-7.43,1.75-11,.59a10.55,10.55,0,0,1-6.86-7.48,17.31,17.31,0,0,1,.2-9.39,10.5,10.5,0,0,1,8.08-7.21Z"/><path class="cls-1" d="M138.3,33.7a13.61,13.61,0,0,1,5.25-.87,26.23,26.23,0,0,1,6.54.89c.15,1.42.3,2.84.48,4.25h-1.18a4.67,4.67,0,0,0-2.52-3.45,7.61,7.61,0,0,0-8,.84,10.52,10.52,0,0,0-3.42,7.22,13,13,0,0,0,1.68,8.13,7.73,7.73,0,0,0,10.7,2.46,5.35,5.35,0,0,0,1.74-3.2h1.18c-.1,1.4-.29,2.78-.39,4.17a20.15,20.15,0,0,1-10.93.61,10,10,0,0,1-6.81-6.26,14.37,14.37,0,0,1-.31-7.88,10.08,10.08,0,0,1,6-6.92Z"/><path class="cls-1" d="M214.4,35.1a8.88,8.88,0,0,1,6-2.25,20,20,0,0,1,6.38.87c.2,1.34.37,2.69.53,4h-1.27a5.22,5.22,0,0,0-3.09-3.6,5.84,5.84,0,0,0-5.62.65,3.27,3.27,0,0,0-1.16,3.27,5.52,5.52,0,0,0,2.31,2.78c2.55,1.72,5.33,3.11,7.67,5.12a4.85,4.85,0,0,1,1.13,5.38,6.46,6.46,0,0,1-4.52,3.5,19.13,19.13,0,0,1-9.47-.44c-.11-1.58-.24-3.15-.32-4.72h1.17a6.25,6.25,0,0,0,2,3.51,5.61,5.61,0,0,0,7.29-.4,3.37,3.37,0,0,0,.86-3.59,7,7,0,0,0-2.47-2.73c-2.49-1.7-5.23-3.05-7.46-5.09a4.49,4.49,0,0,1,0-6.3Z"/><path class="cls-1" d="M191.1,33.11a125.09,125.09,0,0,0,19.55,0c.17,1.64.39,3.29.56,4.94h-1.27c-.23-1.2-.63-2.64-1.92-3.06-1.79-.59-3.7-.37-5.55-.41V50.9a3.33,3.33,0,0,0,.64,2.34,6.37,6.37,0,0,0,2.63.52c0,.29,0,.59,0,.89-3.22,0-6.43,0-9.65,0,0-.3,0-.6,0-.89a6.23,6.23,0,0,0,2.64-.53,3.49,3.49,0,0,0,.62-2.32c0-5.45,0-10.89,0-16.34-1.84,0-3.75-.17-5.53.41-1.29.43-1.73,1.86-1.93,3.07h-1.28c.18-1.65.39-3.3.57-4.94Z"/><path class="cls-1" d="M107,33.47h4.58c3.82,4.31,7.68,8.61,11.53,12.92.73.79,1.4,1.65,2.2,2.38,0-3.92,0-7.84,0-11.76a3.07,3.07,0,0,0-.67-2.23,4.83,4.83,0,0,0-2.16-.43c0-.3,0-.6,0-.89h7.33c0,.22,0,.65,0,.87-.85.14-2,0-2.51.82a5.2,5.2,0,0,0-.34,2.14c0,6,0,12,0,18-4.43-4.92-8.79-9.91-13.19-14.86A19.89,19.89,0,0,0,112,38.53c0,4,0,8,0,12a4.83,4.83,0,0,0,.44,2.55c.62.64,1.6.46,2.4.67,0,.21,0,.63,0,.84h-7.39c0-.22,0-.66,0-.88.8-.13,1.85,0,2.35-.78a8.09,8.09,0,0,0,.34-2.64c0-4.6,0-9.19,0-13.78-.83-1-1.76-2.15-3.18-2.24,0-.28,0-.56,0-.84Z"/><path class="cls-1" d="M153.7,33.45q7.7,0,15.4,0c.18,1.32.32,2.64.49,4h-1.23a4.63,4.63,0,0,0-.81-2.19,2.54,2.54,0,0,0-1.38-.49,65.83,65.83,0,0,0-6.59-.16c0,2.82,0,5.63,0,8.44,1.52.05,3,.05,4.55,0a3.42,3.42,0,0,0,2.29-.66,4.47,4.47,0,0,0,.38-1.62H168c0,1.85,0,3.71,0,5.56l-1.18,0c-.08-.81-.14-2-1.16-2.15a41.87,41.87,0,0,0-6-.2c0,2.4,0,4.8,0,7.2a2,2,0,0,0,1.46,1.9,14.77,14.77,0,0,0,3.87.48,4.59,4.59,0,0,0,2.92-.57,4.58,4.58,0,0,0,1.1-2.61c.4,0,.81,0,1.22,0-.13,1.56-.32,3.11-.47,4.67-5.35-.2-10.69-.43-16-.36,0-.21,0-.63,0-.83.79-.2,1.78-.07,2.37-.75a3.53,3.53,0,0,0,.4-1.89q0-7.21,0-14.44a2.44,2.44,0,0,0-.69-2,6.5,6.5,0,0,0-2.1-.38c0-.22,0-.65,0-.88Z"/><path class="cls-1" d="M100.79,35.34C98.15,33,94.35,32.48,91,33.05a10.45,10.45,0,0,0-7.42,5.34,12.81,12.81,0,0,0-1.18,7.76,10.56,10.56,0,0,0,4,6.9,12,12,0,0,0,9.69,2,10.53,10.53,0,0,0,7.14-5.29A12.22,12.22,0,0,0,100.79,35.34Zm-1,14.53a8.41,8.41,0,0,1-3.26,3.67,6.42,6.42,0,0,1-7.19-.64A10.33,10.33,0,0,1,86,46.42a15.27,15.27,0,0,1,.77-7.58,8.22,8.22,0,0,1,4.45-4.71,6.47,6.47,0,0,1,6.49,1.28A10.56,10.56,0,0,1,100.83,42,14.71,14.71,0,0,1,99.77,49.87Z"/><path class="cls-1" d="M187.28,34.62c-1.38-1.07-3.2-1.08-4.86-1.15-3.34,0-6.66,0-10,0,0,.29,0,.59,0,.89a3.81,3.81,0,0,1,2.3.58,4.68,4.68,0,0,1,.46,2.62c0,4.54,0,9.08,0,13.62a3.43,3.43,0,0,1-.46,2,4.42,4.42,0,0,1-2.32.57c0,.29,0,.59,0,.89,3,0,6.07,0,9.1,0q0-.46,0-.9a9.9,9.9,0,0,1-2.37-.26c-.8-.31-.81-1.31-.88-2,0-1.85,0-3.71,0-5.56a14.79,14.79,0,0,0,7.05-1.24A6.45,6.45,0,0,0,189,40.11,5.36,5.36,0,0,0,187.28,34.62Zm-3.46,9.09c-1.56,1.19-3.62,1.24-5.5,1.29,0-3.54,0-7.08,0-10.61,1.89,0,3.92-.11,5.65.78,1.37.69,1.83,2.36,1.8,3.79A5.55,5.55,0,0,1,183.82,43.71Z"/></g></g></svg>