<svg id="Layer_1" data-name="Layer 1" xmlns="http://www.w3.org/2000/svg" viewBox="0 0 160 160"><defs><style>.cls-1{fill:#fff;fill-rule:evenodd;}.cls-2{fill:none;stroke:#fff;stroke-miterlimit:10;stroke-width:4px;}</style></defs><path class="cls-1" d="M80.11,33.12a3.24,3.24,0,0,0-2.29.94h0a4.23,4.23,0,0,0-.34.4c-.9,1.22-12.66,17.21-15.1,31.42-.94,5.52-.5,10.78,2,15,2.19,3.71,6,6.79,12,8.52a.08.08,0,0,1,0,.07v38a.08.08,0,0,1-.07.08H40.31a3.36,3.36,0,0,0-3.37,2.65,3.25,3.25,0,0,0,3.19,3.83h79a3.37,3.37,0,0,0,3.37-2.66,3.24,3.24,0,0,0-3.19-3.82H83.05a.09.09,0,0,1-.08-.08v-8.64a.06.06,0,0,1,0-.06l18.68-17.38a.06.06,0,0,1,.09,0c4.17,2.27,7.76,2.51,10.8,1.63,3.36-1,6.15-3.44,8.33-6.73,5.27-8,6.92-20.93,7.07-22.21a4.89,4.89,0,0,0,0-.54h0a3.25,3.25,0,0,0-.17-.93,3.11,3.11,0,0,0-.85-1.32,3.21,3.21,0,0,0-1.37-.77,3.27,3.27,0,0,0-.94-.11h0a2.35,2.35,0,0,0-.54.06c-1.27.23-14.12,2.67-21.74,8.41-3.15,2.38-5.44,5.32-6.21,8.74a13.14,13.14,0,0,0,1.26,8.82.08.08,0,0,1,0,.09L83.1,109.88a.08.08,0,0,1-.13,0V89.73a.09.09,0,0,1,.06-.07C89.56,88,93.54,84.8,95.82,80.94c2.52-4.27,3-9.53,2-15-2.44-14.21-14.19-30.2-15.1-31.42a3.14,3.14,0,0,0-.34-.4h0a3.24,3.24,0,0,0-2.28-.94ZM120.83,78a.07.07,0,0,0-.1-.08c-4.14,1.06-10.22,3-14.44,6.22-1.85,1.39-3.35,3-3.79,5a5.59,5.59,0,0,0,0,2.57.08.08,0,0,0,.13,0l4.68-4.35a3.36,3.36,0,0,1,4.27-.36,3.25,3.25,0,0,1,.28,5L107,96.55a.08.08,0,0,0,0,.13,6.34,6.34,0,0,0,3.78.17c2-.57,3.47-2.16,4.74-4.09C118.42,88.36,120,82.16,120.83,78ZM80.17,42.07a.08.08,0,0,0-.13,0C76.47,47.41,70.37,57.61,68.76,67c-.67,3.9-.57,7.65,1.21,10.67a12.08,12.08,0,0,0,6.41,5,.08.08,0,0,0,.11-.07V66.14a3.36,3.36,0,0,1,2.66-3.37A3.24,3.24,0,0,1,83,66V82.82a.09.09,0,0,0,.11.08c3.49-1.18,5.81-3,7.16-5.25,1.79-3,1.88-6.77,1.21-10.67C89.85,57.61,83.74,47.41,80.17,42.07Z"/><circle class="cls-2" cx="80" cy="73" r="52"/></svg>