<svg id="Layer_1" data-name="Layer 1" xmlns="http://www.w3.org/2000/svg" viewBox="0 0 160 160"><defs><style>.cls-1{fill:#fff;}.cls-2{fill:none;stroke:#fff;stroke-miterlimit:10;stroke-width:4px;}</style></defs><path class="cls-1" d="M114.36,87.14l-12.42-6.87L89.74,100.2l18.69,3.14,5.73-15.71A3,3,0,0,1,114.36,87.14Z"/><path class="cls-1" d="M120.42,110.12a4.46,4.46,0,0,0,4.19-2.93l4.2-11.53A4.45,4.45,0,0,0,126.14,90l-5.92-2.16a1.92,1.92,0,0,0-2.46,1.15l-5.93,16.3A1.93,1.93,0,0,0,113,107.7h0l5.92,2.16A4.58,4.58,0,0,0,120.42,110.12Z"/><path class="cls-1" d="M55.38,66.14a7,7,0,0,0,10.39,9.29c.1-.11.2-.22.29-.34,1.7-2,2.62-9.07,2.92-14.33C63.85,62,57.08,64.11,55.38,66.14Z"/><path class="cls-1" d="M53,28.88,49.2,32.27l-8.12-6.83a12.1,12.1,0,0,0-17,1.49l-6.54,7.78a12.09,12.09,0,0,0,1.5,17l4.39,3.68A12.07,12.07,0,0,0,25.3,71.92l40.29,33.8a12.1,12.1,0,0,0,7.76,2.82,12.72,12.72,0,0,0,2-.16,12.1,12.1,0,0,0,8.36-5.63l19.49-31.83ZM29,50.14l-5.07-4.25a4.46,4.46,0,0,1-.55-6.28l6.53-7.78a4.46,4.46,0,0,1,6.28-.55l7.26,6.09ZM69,77.57h0A10.81,10.81,0,1,1,52.44,63.68c3.41-4.07,15.75-6.71,18.19-7.19A1.9,1.9,0,0,1,72.89,58a2.09,2.09,0,0,1,0,.43C72.87,60.89,72.41,73.5,69,77.57Z"/><path class="cls-1" d="M111.31,68.64a7,7,0,0,0-.87-9.86L63.75,19.59a7,7,0,0,0-9.86.86l-2,2.43,57.43,48.18Z"/><path class="cls-1" d="M136,119.82a7.67,7.67,0,0,0,8.64-11.25c-1.83-3.18-9.6-6.33-11.14-6.93a1.91,1.91,0,0,0-2.59,1.49c-.26,1.64-1.41,9.94.43,13.12A7.62,7.62,0,0,0,136,119.82Z"/><path class="cls-1" d="M131.92,123.45h0c-.57-3.21-5.72-7.93-7.29-9.32a1.93,1.93,0,0,0-2.71.17,2.62,2.62,0,0,0-.24.34c-1,1.83-4.22,8-3.66,11.26a7.06,7.06,0,0,0,13.9-2.45Z"/><path class="cls-1" d="M136.63,127.8a1.92,1.92,0,0,0-2.71.18,2.08,2.08,0,0,0-.24.34c-.87,1.6-5.21,9.79-4.52,13.74a8.33,8.33,0,0,0,8.19,6.89,9.11,9.11,0,0,0,1.47-.12,8.34,8.34,0,0,0,6.76-9.66C144.89,135.22,138,129,136.63,127.8Z"/><circle class="cls-2" cx="72.51" cy="68.51" r="56.51"/></svg>